<svg version="1.0" xmlns="http://www.w3.org/2000/svg"
 width="286.000000pt" height="284.000000pt" viewBox="0 0 286.000000 284.000000"
 preserveAspectRatio="xMidYMid meet">

<g transform="translate(0.000000,284.000000) scale(0.100000,-0.100000)"
fill="#000000" stroke="none">
<path d="M1910 2582 c0 -4 14 -21 30 -37 17 -16 30 -34 30 -39 0 -14 -801
-816 -815 -816 -5 0 -87 78 -182 172 l-173 173 -307 -308 -308 -307 21 -20 20
-21 286 281 c157 154 290 280 294 280 5 0 85 -76 179 -170 l170 -170 432 432
433 432 38 -37 c21 -20 41 -37 45 -37 4 0 6 44 5 98 l-3 97 -97 3 c-54 1 -98
-1 -98 -6z"/>
<path d="M1917 1974 c-9 -10 -8 -1417 1 -1432 7 -9 46 -12 163 -10 l154 3 3
288 2 287 230 0 230 0 0 145 0 145 -227 2 -228 3 -3 142 -3 143 253 2 253 3 0
140 0 140 -411 3 c-226 1 -413 -1 -417 -4z"/>
<path d="M1130 984 l0 -445 28 3 27 3 3 443 2 442 -30 0 -30 0 0 -446z"/>
<path d="M205 1057 c-3 -7 -4 -125 -3 -262 l3 -250 28 -3 27 -3 0 265 0 266
-25 0 c-14 0 -28 -6 -30 -13z"/>
</g>
</svg>
