<svg version="1.0" xmlns="http://www.w3.org/2000/svg"
 width="933.000000pt" height="933.000000pt" viewBox="0 0 933.000000 933.000000"
 preserveAspectRatio="xMidYMid meet">

<g transform="translate(0.000000,933.000000) scale(0.100000,-0.100000)"
fill="#000000" stroke="none">
<path d="M2175 6220 l40 -40 -413 -413 -412 -412 -173 173 c-95 94 -177 172
-182 172 -6 0 -146 -136 -313 -303 -303 -303 -303 -303 -282 -322 21 -19 21
-18 118 77 53 53 182 180 286 282 l189 185 179 -171 179 -172 427 427 c235
235 431 427 437 427 5 0 26 -17 47 -37 l38 -37 0 102 0 102 -102 0 -102 0 39
-40z"/>
<path d="M2150 4935 l0 -725 160 0 160 0 2 288 3 287 230 5 230 5 0 140 0 140
-233 3 -233 2 3 143 3 142 253 3 253 2 -3 143 -3 142 -412 3 -413 2 0 -725z"/>
<path d="M3275 5653 c-53 -9 -67 -16 -101 -45 -44 -39 -64 -82 -64 -140 0 -73
60 -147 135 -168 149 -42 279 115 211 253 -32 64 -116 111 -181 100z"/>
<path d="M5122 5129 c-214 -26 -372 -224 -372 -469 0 -217 114 -387 301 -450
52 -18 80 -21 154 -18 99 5 162 26 228 79 20 17 42 27 47 24 6 -3 10 -24 10
-46 l0 -40 148 3 147 3 0 445 0 445 -150 0 -150 0 -5 -38 -5 -37 -47 33 c-80
57 -185 80 -306 66z m259 -282 c29 -16 54 -40 74 -72 25 -41 30 -58 30 -115 0
-57 -5 -74 -30 -115 -43 -70 -99 -98 -186 -93 -124 7 -193 81 -194 209 0 56 4
73 30 114 39 64 97 95 175 95 40 0 70 -7 101 -23z"/>
<path d="M7465 5126 c-166 -41 -304 -168 -355 -325 -19 -59 -22 -87 -18 -165
3 -84 8 -102 41 -169 48 -97 140 -185 246 -236 74 -35 79 -36 196 -36 123 0
230 22 279 58 19 14 19 17 -18 98 -60 134 -55 130 -118 108 -99 -34 -170 -20
-239 50 -109 108 -83 283 52 351 48 25 142 27 199 4 23 -9 42 -15 44 -13 17
19 96 194 92 205 -14 37 -179 85 -288 83 -35 0 -85 -6 -113 -13z"/>
<path d="M4143 5115 c-49 -15 -124 -57 -143 -79 -21 -27 -30 -18 -30 29 l0 45
-155 0 -155 0 0 -450 0 -450 155 0 155 0 0 273 c0 263 1 273 23 312 32 56 95
98 149 99 58 1 96 -20 133 -72 l30 -44 3 -284 3 -284 150 0 149 0 6 25 c3 13
4 160 2 327 -5 342 -9 362 -80 443 -87 98 -270 150 -395 110z"/>
<path d="M6483 5115 c-49 -15 -124 -57 -143 -79 -21 -27 -30 -18 -30 29 l0 45
-155 0 -155 0 0 -450 0 -450 155 0 154 0 3 283 3 284 29 37 c59 78 131 100
204 64 84 -42 86 -50 92 -378 l5 -285 153 -3 152 -3 0 324 c0 370 -4 394 -71
471 -87 99 -271 151 -396 111z"/>
<path d="M1362 4663 l3 -448 28 -2 27 -2 0 450 0 449 -30 0 -30 0 2 -447z"/>
<path d="M3137 5103 c-4 -3 -7 -206 -7 -450 l0 -443 155 0 155 0 0 450 0 450
-148 0 c-82 0 -152 -3 -155 -7z"/>
<path d="M7870 5104 c0 -5 69 -130 328 -595 45 -81 82 -152 82 -159 0 -12 -51
-113 -226 -446 -35 -67 -64 -127 -64 -133 0 -17 334 -15 347 2 6 6 61 111 123
232 62 121 159 308 215 415 203 388 345 667 345 679 0 8 -46 11 -171 9 l-171
-3 -102 -220 c-56 -121 -106 -219 -111 -219 -6 1 -64 101 -130 223 l-119 221
-173 0 c-95 0 -173 -3 -173 -6z"/>
<path d="M440 4481 l0 -271 25 0 25 0 0 260 c0 143 0 263 0 268 0 4 -11 8 -25
10 l-25 3 0 -270z"/>
</g>
</svg>
